<svg width="112" height="112" viewBox="0 0 112 112" fill="none" xmlns="http://www.w3.org/2000/svg">
    <path d="M52.5 2C52.5 0.895432 53.3954 0 54.5 0V0C57.2614 0 59.5 2.23858 59.5 5V35C59.5 36.1046 58.6046 37 57.5 37H54.5C53.3954 37 52.5 36.1046 52.5 35V2Z" fill="#D9D9D9"/>
    <path d="M75 54.5C75 53.3954 75.8954 52.5 77 52.5H110C111.105 52.5 112 53.3954 112 54.5V54.5C112 57.2614 109.761 59.5 107 59.5H77C75.8954 59.5 75 58.6046 75 57.5V54.5Z" fill="#D9D9D9"/>
    <path d="M0 54.5C0 53.3954 0.89543 52.5 2 52.5H36C36.5523 52.5 37 52.9477 37 53.5V58.5C37 59.0523 36.5523 59.5 36 59.5H5C2.23858 59.5 0 57.2614 0 54.5V54.5Z" fill="#D9D9D9"/>
    <path d="M52.5 77C52.5 75.8954 53.3954 75 54.5 75H57.5C58.6046 75 59.5 75.8954 59.5 77V110C59.5 111.105 58.6046 112 57.5 112V112C54.7386 112 52.5 109.761 52.5 107V77Z" fill="#D9D9D9"/>
    <path d="M71.4142 76.3644C70.6332 75.5834 70.6332 74.317 71.4142 73.536L73.5355 71.4147C74.3166 70.6336 75.5829 70.6336 76.364 71.4147L99.6985 94.7492C100.48 95.5302 100.48 96.7966 99.6985 97.5776V97.5776C97.7459 99.5302 94.58 99.5302 92.6274 97.5776L71.4142 76.3644Z" fill="#D9D9D9"/>
    <path d="M35.7489 71.4142C36.5299 70.6332 37.7963 70.6332 38.5773 71.4142L40.6986 73.5355C41.4797 74.3166 41.4797 75.5829 40.6986 76.364L19.4854 97.5772C17.5328 99.5298 14.367 99.5298 12.4143 97.5772V97.5772C11.6333 96.7961 11.6333 95.5298 12.4143 94.7487L35.7489 71.4142Z" fill="#D9D9D9"/>
    <path d="M40.6986 35.7489C41.4796 36.5299 41.4796 37.7963 40.6986 38.5773L38.5773 40.6986C37.7962 41.4797 36.5299 41.4797 35.7488 40.6986L14.5356 19.4854C12.583 17.5328 12.583 14.367 14.5356 12.4143V12.4143C15.3167 11.6333 16.583 11.6333 17.3641 12.4143L40.6986 35.7489Z" fill="#D9D9D9"/>
    <path d="M76.3639 40.6981C75.5829 41.4791 74.3165 41.4791 73.5355 40.6981L71.4142 38.5768C70.6331 37.7957 70.6331 36.5294 71.4142 35.7483L94.7487 12.4138C95.5297 11.6328 96.7961 11.6328 97.5771 12.4138V12.4138C99.5297 14.3664 99.5297 17.5323 97.5771 19.4849L76.3639 40.6981Z" fill="#D9D9D9"/>
</svg>
